<?xml version="1.0" encoding="utf-8"?>
<!-- Generator: Adobe Illustrator 16.0.0, SVG Export Plug-In . SVG Version: 6.00 Build 0)  -->
<!DOCTYPE svg PUBLIC "-//W3C//DTD SVG 1.1//EN" "http://www.w3.org/Graphics/SVG/1.1/DTD/svg11.dtd">
<svg version="1.1" xmlns="http://www.w3.org/2000/svg" xmlns:xlink="http://www.w3.org/1999/xlink" x="0px" y="0px"
	 width="299.52px" height="90px" viewBox="-75.06 0 299.52 90" enable-background="new -75.06 0 299.52 90" xml:space="preserve">
<g id="Layer_1">
	<g>
		<g>
			<g>
				<path fill="#999B97" d="M-55.691,59.879c-7.046,0.198-13.368-4.744-14.714-11.52c-0.292-1.411-0.378-2.561-0.419-3.852
					c-0.006-0.215-0.013-0.431-0.02-0.646c-0.041-1.284,0.792-2.243,1.98-2.28c1.339-0.042,2.679-0.082,4.018-0.123
					c1.235-0.037,2.194,0.888,2.231,2.151c0.006,0.216,0.013,0.431,0.019,0.646c0.04,1.341,0.069,2.31,0.618,3.49
					c1.046,2.317,3.591,3.945,6.053,3.876c1.533-0.043,3.066-0.086,4.6-0.128c4.041-0.11,7.244-3.529,7.14-7.629
					c-0.24-9.356-0.48-18.711-0.72-28.067c-0.225-1.455-0.074-2.482,0.463-3.117c0.37-0.437,0.915-0.667,1.62-0.685
					c1.348-0.034,2.696-0.067,4.045-0.101c1.31-0.032,2.147,1.039,2.171,2.048c0.236,9.905,0.473,19.811,0.709,29.716
					c0.201,8.654-6.62,15.857-15.204,16.091C-52.63,59.793-54.161,59.835-55.691,59.879z"/>
			</g>
			<g>
				<path fill="#999B97" d="M-8.769,59.322c-11.469,0.207-21.007-8.438-21.263-19.331c-0.069-3.08-0.139-6.159-0.208-9.239
					c-0.255-10.859,9.008-19.914,20.65-20.124c11.543-0.209,21.047,8.505,21.186,19.367c0.042,3.08,0.084,6.16,0.125,9.24
					C11.86,50.132,2.668,59.115-8.769,59.322z M-9.507,18.537c-6.805,0.123-12.44,5.643-12.304,12.033
					c0.064,3.08,0.128,6.159,0.192,9.239c0.138,6.501,5.838,11.672,12.706,11.548c6.835-0.124,12.318-5.497,12.221-11.999
					c-0.047-3.08-0.095-6.16-0.142-9.24C3.069,23.617-2.616,18.412-9.507,18.537z"/>
			</g>
			<g>
				<path fill="#999B97" d="M32.489,58.229c-8.003,0.073-14.597-6.304-14.699-14.245c-0.127-10.339-0.254-20.678-0.381-31.018
					c-0.017-1.354,0.728-2.109,2.096-2.125c1.328-0.016,2.656-0.031,3.984-0.045c2.122-0.023,2.137,1.428,2.148,2.488
					c0.107,10.202,0.214,20.404,0.322,30.606c0.037,3.393,2.993,6.228,6.456,6.196c1.514-0.015,3.027-0.027,4.541-0.04
					c3.978-0.032,7.193-3.204,7.169-7.077c-0.065-9.948-0.131-19.895-0.197-29.842c-0.006-0.939-0.017-2.512,2.164-2.525
					c1.309-0.008,2.618-0.015,3.926-0.022c1.427-0.008,2.185,0.715,2.191,2.088c0.048,10.084,0.097,20.169,0.146,30.254
					c0.035,8.364-6.843,15.198-15.333,15.267C35.512,58.203,34,58.216,32.489,58.229z"/>
			</g>
			<g>
				<path fill="#999B97" d="M89.597,58.061c-1.354-0.004-1.77-0.801-2.08-1.617c-2.778-7.407-5.569-14.812-8.375-22.214
					c-1.725,0.895-3.367,1.771-5.013,2.65c-2.099,1.121-4.267,2.281-6.597,3.479c0.008,5.058,0.016,10.115,0.023,15.173
					c0.001,1.06,0.003,2.511-2.098,2.515c-1.393,0.003-2.786,0.006-4.18,0.011c-1.278,0.003-2.045-1.063-2.048-2.095
					c-0.088-14.44-0.176-28.88-0.264-43.32c-0.004-1.015,0.869-2.103,2.175-2.107c7.059-0.021,14.117-0.025,21.175-0.014
					c5.474,0.009,10.255,4.805,10.231,10.251c-0.02,4.783-2.781,7.364-5.796,9.422c0.261,0.693,0.521,1.387,0.782,2.08
					c0.945,2.512,1.837,4.883,2.74,7.429c1.55,4.283,3.611,9.937,5.836,15.673c0.39,0.965,0.2,1.567-0.027,1.902
					c-0.357,0.526-1.053,0.802-2.011,0.798C92.579,58.071,91.088,58.065,89.597,58.061z M67.517,31.049
					c4.353-2.15,14.879-7.33,16.078-9.183c0.062-0.096,0.124-0.192,0.186-0.288c0.093-0.233,0.14-0.488,0.141-0.772
					c0.002-1.152-0.898-2.023-2.096-2.025c-4.775-0.007-9.551-0.007-14.327,0C67.504,22.871,67.511,26.96,67.517,31.049z"/>
			</g>
			<g>
				<path fill="#999B97" d="M130.513,58.374c-0.836-0.01-1.433-0.34-1.823-1.009c-6.737-10.301-12.479-18.954-19.814-29.91
					c-0.07,9.536-0.14,19.07-0.21,28.605c-0.008,1.016-0.882,2.095-2.172,2.086c-1.354-0.01-2.709-0.019-4.063-0.026
					c-1.288-0.008-1.978-1.094-1.972-2.112c0.041-14.44,0.082-28.88,0.122-43.32c0.006-1.01,0.823-2.096,2.135-2.088
					c1.467,0.009,2.933,0.019,4.399,0.028c0.563,0.004,1.028,0.18,1.386,0.524c0-0.024,0-0.048,0-0.071
					c0.132,0.18,0.264,0.359,0.396,0.54c6.594,9.974,13.145,19.962,19.652,29.964c0.11-9.551,0.222-19.103,0.333-28.654
					c0.012-1.014,0.9-2.09,2.205-2.074c1.348,0.016,2.695,0.033,4.043,0.051c1.306,0.017,2.167,1.114,2.153,2.128
					c-0.193,14.439-0.388,28.878-0.581,43.317c-0.014,1.015-0.896,2.089-2.188,2.071C133.18,58.407,131.846,58.391,130.513,58.374z"
					/>
			</g>
			<g>
				<path fill="#999B97" d="M145.583,58.581c-1.237-0.02-2.088-0.896-2.069-2.132c0.176-14.439,0.353-28.879,0.528-43.318
					c0.018-1.198,0.994-2.085,2.271-2.066c9.576,0.147,19.151,0.323,28.727,0.529c2.179,0.047,2.149,1.381,2.123,2.558
					c-0.023,1.079-0.047,2.158-0.07,3.237c-0.051,2.295-0.513,2.5-2.646,2.455c-7.349-0.157-14.698-0.297-22.047-0.42
					c-0.056,3.329-0.111,6.657-0.167,9.985c6.504,0.108,13.007,0.231,19.51,0.367c1.225,0.025,2.095,0.952,2.068,2.202
					c-0.028,1.334-0.057,2.668-0.086,4.001c-0.026,1.251-0.934,2.139-2.156,2.114c-6.491-0.136-12.982-0.257-19.475-0.366
					c-0.07,4.231-0.141,8.462-0.212,12.693c7.556,0.126,15.111,0.271,22.666,0.434c2.121,0.046,2.571,0.272,2.521,2.566
					c-0.023,1.06-0.047,2.118-0.07,3.178c-0.025,1.145-0.058,2.57-2.216,2.523C165.05,58.91,155.316,58.73,145.583,58.581z"/>
			</g>
			<g>
				<path fill="#999B97" d="M197.618,59.673c-2.101-0.056-2.063-1.506-2.035-2.564c0.171-6.529,0.342-13.058,0.513-19.586
					c-4.998-7.512-10.021-15.015-15.069-22.511c-0.266-0.485-0.259-0.772-0.248-1.249c0.031-1.354,0.74-2.024,2.107-1.993
					c1.765,0.041,3.529,0.083,5.294,0.126c0.827,0.02,1.424,0.344,1.878,1.021c3.513,5.434,7.014,10.873,10.502,16.314
					c6.648-9.574,10.011-14.212,11.398-15.836c-0.004-0.004-0.008-0.008-0.012-0.013c0.465-0.557,1.056-0.817,1.804-0.795
					c1.783,0.053,3.566,0.107,5.351,0.163c1.367,0.042,2.097,0.812,2.054,2.165c-0.021,0.673-0.438,1.213-0.742,1.607
					c-0.007,0.009-0.015,0.019-0.021,0.028c0,0.007,0,0.014-0.001,0.021c-0.021,0.025-0.042,0.051-0.063,0.076
					c0,0.013-0.001,0.025-0.001,0.038c-0.021,0.02-0.043,0.041-0.065,0.061c-5.313,7.03-10.602,14.069-15.868,21.117
					c-0.182,6.489-0.363,12.978-0.545,19.467c-0.032,1.176-0.069,2.509-2.228,2.449C200.285,59.745,198.951,59.709,197.618,59.673z"
					/>
			</g>
		</g>
	</g>
</g>
<g id="Layer_3">
</g>
<g id="Shadow_Fx">
	<g>
		<path opacity="0" d="M163.641,79.117c0,3.853-39.82,6.976-88.94,6.976c-49.12,0-88.939-3.123-88.939-6.976
			c0-3.854,39.82-2.991,88.939-2.991C123.82,76.126,163.641,75.264,163.641,79.117z"/>
		<path opacity="0.0037" fill="#010000" d="M162.975,79.128c0,3.832-39.51,6.938-88.247,6.938c-48.736,0-88.246-3.106-88.246-6.938
			c0-3.833,39.51-2.976,88.246-2.976C123.465,76.152,162.975,75.295,162.975,79.128z"/>
		<path opacity="0.0073" fill="#020100" d="M162.309,79.138c0,3.812-39.199,6.901-87.553,6.901c-48.354,0-87.552-3.09-87.552-6.901
			c0-3.813,39.199-2.959,87.552-2.959C123.109,76.179,162.309,75.325,162.309,79.138z"/>
		<path opacity="0.011" fill="#030101" d="M161.644,79.148c0,3.791-38.89,6.864-86.86,6.864c-47.97,0-86.858-3.073-86.858-6.864
			c0-3.792,38.888-2.943,86.858-2.943C122.754,76.205,161.644,75.356,161.644,79.148z"/>
		<path opacity="0.0147" fill="#040201" d="M160.977,79.158c0,3.771-38.578,6.827-86.166,6.827c-47.587,0-86.165-3.057-86.165-6.827
			s38.578-2.927,86.165-2.927C122.398,76.231,160.977,75.388,160.977,79.158z"/>
		<path opacity="0.0183" fill="#050201" d="M160.312,79.17c0,3.749-38.268,6.788-85.473,6.788c-47.205,0-85.472-3.039-85.472-6.788
			c0-3.751,38.267-2.911,85.472-2.911C122.044,76.259,160.312,75.419,160.312,79.17z"/>
		<path opacity="0.022" fill="#060301" d="M159.646,79.18c0,3.729-37.957,6.752-84.779,6.752c-46.821,0-84.778-3.022-84.778-6.752
			s37.957-2.895,84.778-2.895C121.688,76.285,159.646,75.45,159.646,79.18z"/>
		<path opacity="0.0257" fill="#070301" d="M158.979,79.189c0,3.709-37.646,6.715-84.085,6.715c-46.438,0-84.084-3.006-84.084-6.715
			s37.646-2.878,84.084-2.878C121.333,76.312,158.979,75.48,158.979,79.189z"/>
		<path opacity="0.0294" fill="#080302" d="M158.313,79.201c0,3.688-37.335,6.677-83.392,6.677c-46.055,0-83.391-2.989-83.391-6.677
			c0-3.689,37.336-2.863,83.391-2.863C120.979,76.338,158.313,75.512,158.313,79.201z"/>
		<path opacity="0.033" fill="#090402" d="M157.647,79.211c0,3.667-37.025,6.64-82.698,6.64c-45.672,0-82.697-2.973-82.697-6.64
			c0-3.668,37.025-2.847,82.697-2.847C120.622,76.364,157.647,75.543,157.647,79.211z"/>
		<path opacity="0.0367" fill="#0A0402" d="M156.982,79.222c0,3.646-36.715,6.603-82.005,6.603c-45.289,0-82.004-2.956-82.004-6.603
			c0-3.647,36.715-2.831,82.004-2.831C120.268,76.391,156.982,75.574,156.982,79.222z"/>
		<path opacity="0.0404" fill="#0C0502" d="M156.316,79.232c0,3.626-36.404,6.564-81.312,6.564c-44.906,0-81.311-2.938-81.311-6.564
			c0-3.627,36.404-2.815,81.311-2.815C119.912,76.417,156.316,75.605,156.316,79.232z"/>
		<path opacity="0.044" fill="#0D0502" d="M155.65,79.242c0,3.605-36.094,6.528-80.618,6.528c-44.523,0-80.616-2.923-80.616-6.528
			c0-3.606,36.093-2.799,80.616-2.799C119.557,76.443,155.65,75.636,155.65,79.242z"/>
		<path opacity="0.0477" fill="#0E0503" d="M154.984,79.253c0,3.585-35.783,6.49-79.924,6.49c-44.14,0-79.923-2.905-79.923-6.49
			c0-3.586,35.783-2.783,79.923-2.783C119.201,76.47,154.984,75.667,154.984,79.253z"/>
		<path opacity="0.0514" fill="#0F0603" d="M154.319,79.264c0,3.564-35.474,6.453-79.231,6.453c-43.757,0-79.229-2.889-79.229-6.453
			s35.472-2.768,79.229-2.768C118.846,76.496,154.319,75.699,154.319,79.264z"/>
		<path opacity="0.055" fill="#100603" d="M153.653,79.273c0,3.544-35.162,6.416-78.538,6.416c-43.374,0-78.536-2.872-78.536-6.416
			s35.162-2.751,78.536-2.751C118.491,76.522,153.653,75.729,153.653,79.273z"/>
		<path opacity="0.0587" fill="#110703" d="M152.987,79.284c0,3.523-34.853,6.378-77.844,6.378c-42.991,0-77.842-2.854-77.842-6.378
			c0-3.524,34.852-2.735,77.842-2.735C118.135,76.549,152.987,75.76,152.987,79.284z"/>
		<path opacity="0.0624" fill="#120703" d="M152.321,79.295c0,3.502-34.541,6.341-77.15,6.341c-42.607,0-77.149-2.839-77.149-6.341
			c0-3.504,34.542-2.719,77.149-2.719C117.78,76.576,152.321,75.791,152.321,79.295z"/>
		<path opacity="0.0661" fill="#130804" d="M151.655,79.306c0,3.481-34.23,6.304-76.457,6.304c-42.225,0-76.455-2.822-76.455-6.304
			c0-3.483,34.23-2.703,76.455-2.703C117.425,76.603,151.655,75.822,151.655,79.306z"/>
		<path opacity="0.0697" fill="#140804" d="M150.989,79.315c0,3.462-33.92,6.267-75.763,6.267c-41.842,0-75.762-2.805-75.762-6.267
			s33.92-2.687,75.762-2.687C117.069,76.629,150.989,75.854,150.989,79.315z"/>
		<path opacity="0.0734" fill="#150804" d="M150.323,79.325c0,3.441-33.609,6.229-75.069,6.229c-41.459,0-75.069-2.788-75.069-6.229
			s33.61-2.671,75.069-2.671C116.714,76.654,150.323,75.884,150.323,79.325z"/>
		<path opacity="0.0771" fill="#160904" d="M149.658,79.337c0,3.42-33.3,6.191-74.376,6.191S0.907,82.757,0.907,79.337
			c0-3.421,33.299-2.655,74.375-2.655S149.658,75.916,149.658,79.337z"/>
		<path opacity="0.0807" fill="#170904" d="M148.992,79.347c0,3.4-32.988,6.155-73.682,6.155c-40.693,0-73.681-2.755-73.681-6.155
			c0-3.399,32.988-2.639,73.681-2.639C116.004,76.708,148.992,75.947,148.992,79.347z"/>
		<path opacity="0.0844" fill="#180A05" d="M148.326,79.357c0,3.379-32.678,6.117-72.989,6.117c-40.31,0-72.988-2.738-72.988-6.117
			c0-3.38,32.678-2.623,72.988-2.623C115.648,76.734,148.326,75.978,148.326,79.357z"/>
		<path opacity="0.0881" fill="#190A05" d="M147.66,79.367c0,3.358-32.367,6.08-72.295,6.08c-39.927,0-72.294-2.722-72.294-6.08
			c0-3.359,32.368-2.606,72.294-2.606C115.293,76.761,147.66,76.008,147.66,79.367z"/>
		<path opacity="0.0917" fill="#1A0B05" d="M146.994,79.378c0,3.338-32.057,6.043-71.601,6.043c-39.543,0-71.601-2.705-71.601-6.043
			s32.058-2.591,71.601-2.591C114.938,76.787,146.994,76.04,146.994,79.378z"/>
		<path opacity="0.0954" fill="#1B0B05" d="M146.329,79.389c0,3.317-31.746,6.006-70.908,6.006c-39.161,0-70.907-2.688-70.907-6.006
			s31.746-2.574,70.907-2.574C114.583,76.814,146.329,76.071,146.329,79.389z"/>
		<path opacity="0.0991" fill="#1C0B05" d="M145.663,79.399c0,3.296-31.437,5.968-70.215,5.968c-38.778,0-70.214-2.672-70.214-5.968
			c0-3.298,31.436-2.56,70.214-2.56C114.227,76.84,145.663,76.102,145.663,79.399z"/>
		<path opacity="0.1028" fill="#1D0C06" d="M144.997,79.409c0,3.276-31.126,5.931-69.521,5.931c-38.395,0-69.52-2.654-69.52-5.931
			s31.125-2.543,69.52-2.543C113.871,76.866,144.997,76.133,144.997,79.409z"/>
		<path opacity="0.1064" fill="#1E0C06" d="M144.332,79.42c0,3.255-30.815,5.894-68.828,5.894c-38.012,0-68.827-2.639-68.827-5.894
			c0-3.256,30.815-2.527,68.827-2.527C113.517,76.893,144.332,76.164,144.332,79.42z"/>
		<path opacity="0.1101" fill="#1F0D06" d="M143.666,79.431c0,3.234-30.505,5.856-68.135,5.856c-37.628,0-68.132-2.622-68.132-5.856
			c0-3.235,30.504-2.511,68.132-2.511C113.161,76.92,143.666,76.195,143.666,79.431z"/>
		<path opacity="0.1138" fill="#200D06" d="M143,79.44c0,3.214-30.194,5.819-67.441,5.819c-37.245,0-67.438-2.605-67.438-5.819
			s30.193-2.494,67.438-2.494C112.806,76.946,143,76.227,143,79.44z"/>
		<path opacity="0.1174" fill="#210E06" d="M142.333,79.451c0,3.193-29.883,5.781-66.747,5.781c-36.862,0-66.745-2.588-66.745-5.781
			c0-3.194,29.883-2.479,66.745-2.479C112.45,76.972,142.333,76.257,142.333,79.451z"/>
		<path opacity="0.1211" fill="#230E07" d="M141.668,79.462c0,3.173-29.572,5.744-66.054,5.744c-36.479,0-66.052-2.571-66.052-5.744
			c0-3.174,29.573-2.463,66.052-2.463C112.096,76.999,141.668,76.288,141.668,79.462z"/>
		<path opacity="0.1248" fill="#240E07" d="M141.002,79.473c0,3.152-29.262,5.706-65.359,5.706c-36.097,0-65.359-2.554-65.359-5.706
			c0-3.153,29.262-2.447,65.359-2.447C111.74,77.025,141.002,76.319,141.002,79.473z"/>
		<path opacity="0.1284" fill="#250F07" d="M140.336,79.482c0,3.132-28.951,5.67-64.666,5.67c-35.713,0-64.665-2.538-64.665-5.67
			s28.952-2.431,64.665-2.431C111.385,77.052,140.336,76.351,140.336,79.482z"/>
		<path opacity="0.1321" fill="#260F07" d="M139.67,79.492c0,3.111-28.641,5.633-63.973,5.633c-35.33,0-63.972-2.521-63.972-5.633
			s28.642-2.414,63.972-2.414C111.029,77.078,139.67,76.381,139.67,79.492z"/>
		<path opacity="0.1358" fill="#271007" d="M139.005,79.503c0,3.091-28.331,5.595-63.28,5.595c-34.946,0-63.277-2.504-63.277-5.595
			s28.331-2.398,63.277-2.398C110.674,77.104,139.005,76.412,139.005,79.503z"/>
		<path opacity="0.1395" fill="#281008" d="M138.339,79.514c0,3.07-28.021,5.558-62.586,5.558c-34.563,0-62.584-2.487-62.584-5.558
			s28.021-2.383,62.584-2.383C110.318,77.131,138.339,76.443,138.339,79.514z"/>
		<path opacity="0.1431" fill="#291008" d="M137.673,79.524c0,3.05-27.71,5.521-61.893,5.521c-34.181,0-61.891-2.471-61.891-5.521
			s27.71-2.367,61.891-2.367C109.963,77.157,137.673,76.475,137.673,79.524z"/>
		<path opacity="0.1468" fill="#2A1108" d="M137.007,79.535c0,3.028-27.399,5.482-61.198,5.482c-33.798,0-61.198-2.454-61.198-5.482
			c0-3.029,27.399-2.352,61.198-2.352C109.607,77.184,137.007,76.506,137.007,79.535z"/>
		<path opacity="0.1505" fill="#2B1108" d="M136.342,79.545c0,3.009-27.09,5.445-60.506,5.445c-33.415,0-60.504-2.437-60.504-5.445
			c0-3.008,27.089-2.335,60.504-2.335C109.252,77.21,136.342,76.537,136.342,79.545z"/>
		<path opacity="0.1541" fill="#2C1208" d="M135.676,79.556c0,2.987-26.777,5.409-59.813,5.409c-33.031,0-59.81-2.422-59.81-5.409
			c0-2.988,26.778-2.318,59.81-2.318C108.898,77.237,135.676,76.567,135.676,79.556z"/>
		<path opacity="0.1578" fill="#2D1209" d="M135.01,79.566c0,2.967-26.468,5.371-59.118,5.371c-32.649,0-59.117-2.404-59.117-5.371
			c0-2.968,26.467-2.304,59.117-2.304C108.542,77.263,135.01,76.599,135.01,79.566z"/>
		<path opacity="0.1615" fill="#2E1309" d="M134.344,79.576c0,2.946-26.157,5.334-58.425,5.334c-32.266,0-58.423-2.388-58.423-5.334
			c0-2.947,26.157-2.287,58.423-2.287C108.187,77.289,134.344,76.629,134.344,79.576z"/>
		<path opacity="0.1651" fill="#2F1309" d="M133.678,79.587c0,2.926-25.846,5.297-57.73,5.297c-31.883,0-57.73-2.371-57.73-5.297
			s25.847-2.271,57.73-2.271C107.832,77.316,133.678,76.661,133.678,79.587z"/>
		<path opacity="0.1688" fill="#301309" d="M133.012,79.598c0,2.905-25.535,5.259-57.037,5.259c-31.5,0-57.036-2.354-57.036-5.259
			c0-2.906,25.536-2.255,57.036-2.255C107.477,77.343,133.012,76.691,133.012,79.598z"/>
		<path opacity="0.1725" fill="#311409" d="M132.346,79.607c0,2.885-25.225,5.222-56.344,5.222c-31.116,0-56.342-2.337-56.342-5.222
			s25.226-2.238,56.342-2.238C107.121,77.369,132.346,76.723,132.346,79.607z"/>
		<path opacity="0.1761" fill="#32140A" d="M131.68,79.618c0,2.864-24.914,5.185-55.65,5.185c-30.733,0-55.648-2.32-55.648-5.185
			s24.915-2.224,55.648-2.224C106.766,77.395,131.68,76.754,131.68,79.618z"/>
		<path opacity="0.1798" fill="#33150A" d="M131.015,79.629c0,2.844-24.604,5.146-54.957,5.146c-30.351,0-54.955-2.303-54.955-5.146
			s24.604-2.207,54.955-2.207C106.41,77.422,131.015,76.785,131.015,79.629z"/>
		<path opacity="0.1835" fill="#34150A" d="M130.349,79.639c0,2.824-24.294,5.11-54.263,5.11c-29.968,0-54.262-2.286-54.262-5.11
			c0-2.822,24.294-2.19,54.262-2.19C106.055,77.448,130.349,76.816,130.349,79.639z"/>
		<path opacity="0.1872" fill="#35160A" d="M129.683,79.649c0,2.803-23.983,5.072-53.569,5.072c-29.585,0-53.568-2.27-53.568-5.072
			s23.983-2.175,53.568-2.175C105.699,77.475,129.683,76.847,129.683,79.649z"/>
		<path opacity="0.1908" fill="#36160A" d="M129.017,79.66c0,2.781-23.673,5.035-52.876,5.035c-29.201,0-52.875-2.254-52.875-5.035
			c0-2.782,23.674-2.159,52.875-2.159C105.344,77.501,129.017,76.878,129.017,79.66z"/>
		<path opacity="0.1945" fill="#37160B" d="M128.352,79.67c0,2.762-23.362,4.998-52.184,4.998c-28.818,0-52.181-2.236-52.181-4.998
			c0-2.761,23.363-2.143,52.181-2.143C104.989,77.527,128.352,76.909,128.352,79.67z"/>
		<path opacity="0.1982" fill="#38170B" d="M127.686,79.682c0,2.74-23.052,4.96-51.489,4.96c-28.435,0-51.487-2.22-51.487-4.96
			c0-2.741,23.052-2.127,51.487-2.127C104.634,77.555,127.686,76.94,127.686,79.682z"/>
		<path opacity="0.2018" fill="#3A170B" d="M127.02,79.691c0,2.721-22.741,4.923-50.796,4.923c-28.052,0-50.794-2.202-50.794-4.923
			s22.742-2.111,50.794-2.111C104.278,77.58,127.02,76.971,127.02,79.691z"/>
		<path opacity="0.2055" fill="#3B180B" d="M126.354,79.702c0,2.699-22.431,4.886-50.102,4.886c-27.67,0-50.101-2.187-50.101-4.886
			c0-2.7,22.431-2.095,50.101-2.095C103.923,77.607,126.354,77.002,126.354,79.702z"/>
		<path opacity="0.2092" fill="#3C180C" d="M125.688,79.713c0,2.678-22.119,4.848-49.408,4.848c-27.286,0-49.407-2.17-49.407-4.848
			c0-2.68,22.121-2.079,49.407-2.079C103.568,77.634,125.688,77.033,125.688,79.713z"/>
		<path opacity="0.2128" fill="#3D180C" d="M125.022,79.723c0,2.658-21.81,4.812-48.716,4.812c-26.903,0-48.713-2.153-48.713-4.812
			s21.81-2.063,48.713-2.063C103.213,77.66,125.022,77.064,125.022,79.723z"/>
		<path opacity="0.2165" fill="#3E190C" d="M124.356,79.733c0,2.638-21.499,4.774-48.021,4.774c-26.521,0-48.021-2.137-48.021-4.774
			s21.5-2.047,48.021-2.047C102.857,77.687,124.356,77.096,124.356,79.733z"/>
		<path opacity="0.2202" fill="#3F190C" d="M123.69,79.744c0,2.617-21.188,4.736-47.328,4.736c-26.137,0-47.326-2.119-47.326-4.736
			s21.189-2.031,47.326-2.031C102.502,77.713,123.69,77.127,123.69,79.744z"/>
		<path opacity="0.2239" fill="#401A0C" d="M123.024,79.754c0,2.597-20.878,4.699-46.635,4.699c-25.754,0-46.632-2.103-46.632-4.699
			s20.878-2.015,46.632-2.015C102.146,77.739,123.024,77.157,123.024,79.754z"/>
		<path opacity="0.2275" fill="#411A0D" d="M122.358,79.765c0,2.575-20.567,4.661-45.94,4.661c-25.372,0-45.939-2.086-45.939-4.661
			c0-2.576,20.568-1.999,45.939-1.999C101.791,77.766,122.358,77.188,122.358,79.765z"/>
		<path opacity="0.2312" fill="#421B0D" d="M121.693,79.775c0,2.555-20.258,4.624-45.248,4.624c-24.988,0-45.246-2.069-45.246-4.624
			c0-2.556,20.258-1.982,45.246-1.982C101.436,77.793,121.693,77.22,121.693,79.775z"/>
		<path opacity="0.2349" fill="#431B0D" d="M121.027,79.785c0,2.535-19.947,4.588-44.555,4.588c-24.604,0-44.552-2.053-44.552-4.588
			c0-2.534,19.947-1.967,44.552-1.967C101.08,77.818,121.027,77.251,121.027,79.785z"/>
		<path opacity="0.2385" fill="#441B0D" d="M120.361,79.796c0,2.514-19.637,4.55-43.86,4.55c-24.222,0-43.858-2.036-43.858-4.55
			c0-2.515,19.636-1.95,43.858-1.95C100.725,77.846,120.361,77.281,120.361,79.796z"/>
		<path opacity="0.2422" fill="#451C0D" d="M119.695,79.807c0,2.493-19.325,4.512-43.166,4.512c-23.839,0-43.166-2.019-43.166-4.512
			c0-2.494,19.327-1.936,43.166-1.936C100.37,77.871,119.695,77.313,119.695,79.807z"/>
		<path opacity="0.2459" fill="#461C0E" d="M119.029,79.816c0,2.473-19.015,4.476-42.473,4.476c-23.456,0-42.472-2.003-42.472-4.476
			s19.016-1.918,42.472-1.918C100.015,77.898,119.029,77.344,119.029,79.816z"/>
		<path opacity="0.2495" fill="#471D0E" d="M118.363,79.827c0,2.452-18.704,4.438-41.779,4.438c-23.073,0-41.778-1.985-41.778-4.438
			s18.705-1.902,41.778-1.902C99.659,77.925,118.363,77.375,118.363,79.827z"/>
		<path opacity="0.2532" fill="#481D0E" d="M117.697,79.838c0,2.432-18.394,4.4-41.086,4.4c-22.689,0-41.084-1.969-41.084-4.4
			s18.395-1.887,41.084-1.887C99.304,77.951,117.697,77.406,117.697,79.838z"/>
		<path opacity="0.2569" fill="#491E0E" d="M117.032,79.848c0,2.411-18.084,4.363-40.394,4.363c-22.306,0-40.39-1.952-40.39-4.363
			c0-2.41,18.084-1.87,40.39-1.87C98.948,77.978,117.032,77.438,117.032,79.848z"/>
		<path opacity="0.2606" fill="#4A1E0E" d="M116.366,79.858c0,2.391-17.772,4.326-39.699,4.326c-21.924,0-39.697-1.936-39.697-4.326
			s17.773-1.854,39.697-1.854C98.594,78.004,116.366,77.468,116.366,79.858z"/>
		<path opacity="0.2642" fill="#4B1E0F" d="M115.7,79.869c0,2.37-17.462,4.288-39.005,4.288c-21.541,0-39.004-1.918-39.004-4.288
			s17.463-1.839,39.004-1.839C98.238,78.03,115.7,77.499,115.7,79.869z"/>
		<path opacity="0.2679" fill="#4C1F0F" d="M115.034,79.879c0,2.35-17.151,4.252-38.312,4.252c-21.158,0-38.311-1.902-38.311-4.252
			s17.152-1.822,38.311-1.822C97.883,78.057,115.034,77.529,115.034,79.879z"/>
		<path opacity="0.2716" fill="#4D1F0F" d="M114.369,79.89c0,2.329-16.842,4.214-37.619,4.214c-20.774,0-37.616-1.885-37.616-4.214
			s16.842-1.807,37.616-1.807C97.527,78.083,114.369,77.561,114.369,79.89z"/>
		<path opacity="0.2752" fill="#4E200F" d="M113.703,79.9c0,2.308-16.531,4.177-36.926,4.177c-20.391,0-36.923-1.869-36.923-4.177
			c0-2.309,16.532-1.791,36.923-1.791C97.172,78.109,113.703,77.592,113.703,79.9z"/>
		<path opacity="0.2789" fill="#4F200F" d="M113.037,79.91c0,2.288-16.22,4.141-36.231,4.141c-20.009,0-36.229-1.853-36.229-4.141
			c0-2.287,16.221-1.774,36.229-1.774C96.817,78.136,113.037,77.623,113.037,79.91z"/>
		<path opacity="0.2826" fill="#512010" d="M112.371,79.921c0,2.268-15.909,4.103-35.538,4.103c-19.625,0-35.536-1.835-35.536-4.103
			c0-2.267,15.911-1.759,35.536-1.759C96.462,78.162,112.371,77.654,112.371,79.921z"/>
		<path opacity="0.2862" fill="#522110" d="M111.705,79.932c0,2.246-15.599,4.064-34.844,4.064c-19.243,0-34.843-1.818-34.843-4.064
			s15.6-1.742,34.843-1.742C96.106,78.189,111.705,77.686,111.705,79.932z"/>
		<path opacity="0.2899" fill="#532110" d="M111.039,79.941c0,2.227-15.288,4.028-34.15,4.028c-18.859,0-34.149-1.802-34.149-4.028
			c0-2.225,15.29-1.727,34.149-1.727C95.751,78.215,111.039,77.717,111.039,79.941z"/>
		<path opacity="0.2936" fill="#542210" d="M110.373,79.952c0,2.205-14.978,3.99-33.457,3.99c-18.476,0-33.455-1.785-33.455-3.99
			s14.979-1.71,33.455-1.71C95.396,78.242,110.373,77.747,110.373,79.952z"/>
		<path opacity="0.2972" fill="#552210" d="M109.708,79.963c0,2.185-14.667,3.953-32.765,3.953c-18.092,0-32.761-1.769-32.761-3.953
			s14.669-1.695,32.761-1.695C95.041,78.268,109.708,77.778,109.708,79.963z"/>
		<path opacity="0.3009" fill="#562311" d="M109.042,79.973c0,2.165-14.356,3.916-32.07,3.916c-17.71,0-32.068-1.751-32.068-3.916
			c0-2.163,14.358-1.678,32.068-1.678C94.686,78.295,109.042,77.81,109.042,79.973z"/>
		<path opacity="0.3046" fill="#572311" d="M108.376,79.983c0,2.144-14.046,3.878-31.376,3.878c-17.328,0-31.375-1.734-31.375-3.878
			S59.672,78.321,77,78.321C94.33,78.321,108.376,77.84,108.376,79.983z"/>
		<path opacity="0.3083" fill="#582311" d="M107.71,79.994c0,2.123-13.735,3.841-30.683,3.841c-16.944,0-30.681-1.718-30.681-3.841
			s13.737-1.646,30.681-1.646C93.975,78.348,107.71,77.871,107.71,79.994z"/>
		<path opacity="0.3119" fill="#592411" d="M107.044,80.005c0,2.103-13.425,3.803-29.989,3.803c-16.561,0-29.987-1.7-29.987-3.803
			s13.427-1.631,29.987-1.631C93.619,78.374,107.044,77.902,107.044,80.005z"/>
		<path opacity="0.3156" fill="#5A2411" d="M106.379,80.015c0,2.082-13.115,3.767-29.296,3.767c-16.179,0-29.294-1.685-29.294-3.767
			c0-2.081,13.115-1.614,29.294-1.614C93.264,78.4,106.379,77.934,106.379,80.015z"/>
		<path opacity="0.3193" fill="#5B2512" d="M105.713,80.025c0,2.062-12.805,3.729-28.603,3.729c-15.795,0-28.6-1.668-28.6-3.729
			c0-2.061,12.805-1.599,28.6-1.599C92.908,78.427,105.713,77.965,105.713,80.025z"/>
		<path opacity="0.3229" fill="#5C2512" d="M105.047,80.036c0,2.04-12.494,3.691-27.909,3.691c-15.412,0-27.906-1.651-27.906-3.691
			c0-2.041,12.494-1.583,27.906-1.583C92.553,78.453,105.047,77.995,105.047,80.036z"/>
		<path opacity="0.3266" fill="#5D2612" d="M104.381,80.046c0,2.021-12.183,3.655-27.215,3.655c-15.029,0-27.213-1.635-27.213-3.655
			c0-2.02,12.184-1.566,27.213-1.566C92.198,78.479,104.381,78.026,104.381,80.046z"/>
		<path opacity="0.3303" fill="#5E2612" d="M103.716,80.057c0,2-11.873,3.617-26.522,3.617c-14.646,0-26.52-1.617-26.52-3.617
			c0-1.999,11.874-1.55,26.52-1.55C91.843,78.507,103.716,78.058,103.716,80.057z"/>
		<path opacity="0.3339" fill="#5F2612" d="M103.05,80.067c0,1.979-11.563,3.579-25.829,3.579c-14.263,0-25.826-1.601-25.826-3.579
			c0-1.979,11.563-1.535,25.826-1.535C91.487,78.532,103.05,78.088,103.05,80.067z"/>
		<path opacity="0.3376" fill="#602713" d="M102.384,80.077c0,1.959-11.252,3.543-25.135,3.543c-13.88,0-25.133-1.584-25.133-3.543
			c0-1.958,11.252-1.518,25.133-1.518C91.132,78.56,102.384,78.119,102.384,80.077z"/>
		<path opacity="0.3413" fill="#612713" d="M101.718,80.088c0,1.938-10.941,3.506-24.441,3.506c-13.497,0-24.439-1.568-24.439-3.506
			s10.942-1.503,24.439-1.503C90.776,78.585,101.718,78.15,101.718,80.088z"/>
		<path opacity="0.345" fill="#622813" d="M101.052,80.099c0,1.917-10.63,3.468-23.748,3.468c-13.113,0-23.745-1.551-23.745-3.468
			s10.632-1.486,23.745-1.486C90.422,78.612,101.052,78.182,101.052,80.099z"/>
		<path opacity="0.3486" fill="#632813" d="M100.387,80.108c0,1.897-10.32,3.431-23.055,3.431c-12.731,0-23.052-1.533-23.052-3.431
			c0-1.896,10.321-1.47,23.052-1.47C90.066,78.639,100.387,78.213,100.387,80.108z"/>
		<path opacity="0.3523" fill="#642913" d="M99.72,80.119c0,1.876-10.009,3.394-22.36,3.394c-12.347,0-22.358-1.518-22.358-3.394
			c0-1.875,10.011-1.454,22.358-1.454C89.711,78.665,99.72,78.244,99.72,80.119z"/>
		<path opacity="0.356" fill="#652914" d="M99.055,80.13c0,1.855-9.699,3.355-21.667,3.355c-11.965,0-21.665-1.5-21.665-3.355
			s9.7-1.438,21.665-1.438C89.355,78.691,99.055,78.274,99.055,80.13z"/>
		<path opacity="0.3596" fill="#662914" d="M98.389,80.141c0,1.834-9.389,3.318-20.974,3.318c-11.582,0-20.971-1.484-20.971-3.318
			c0-1.835,9.39-1.423,20.971-1.423C89,78.718,98.389,78.306,98.389,80.141z"/>
		<path opacity="0.3633" fill="#682A14" d="M97.723,80.15c0,1.814-9.078,3.281-20.28,3.281c-11.198,0-20.277-1.467-20.277-3.281
			c0-1.813,9.079-1.406,20.277-1.406C88.645,78.744,97.723,78.337,97.723,80.15z"/>
		<path opacity="0.367" fill="#692A14" d="M97.057,80.161c0,1.794-8.768,3.244-19.586,3.244c-10.815,0-19.584-1.45-19.584-3.244
			c0-1.793,8.769-1.391,19.584-1.391C88.289,78.771,97.057,78.368,97.057,80.161z"/>
		<path opacity="0.3706" fill="#6A2B14" d="M96.391,80.172c0,1.772-8.456,3.206-18.893,3.206c-10.433,0-18.891-1.434-18.891-3.206
			s8.458-1.375,18.891-1.375C87.935,78.797,96.391,78.399,96.391,80.172z"/>
		<path opacity="0.3743" fill="#6B2B15" d="M95.726,80.182c0,1.753-8.146,3.169-18.2,3.169c-10.049,0-18.197-1.416-18.197-3.169
			c0-1.752,8.148-1.357,18.197-1.357C87.579,78.824,95.726,78.43,95.726,80.182z"/>
		<path opacity="0.378" fill="#6C2B15" d="M95.06,80.192c0,1.732-7.836,3.132-17.506,3.132c-9.667,0-17.504-1.399-17.504-3.132
			c0-1.731,7.837-1.343,17.504-1.343C87.224,78.85,95.06,78.461,95.06,80.192z"/>
		<path opacity="0.3817" fill="#6D2C15" d="M94.394,80.203c0,1.711-7.525,3.095-16.813,3.095c-9.283,0-16.81-1.384-16.81-3.095
			s7.526-1.326,16.81-1.326C86.868,78.877,94.394,78.492,94.394,80.203z"/>
		<path opacity="0.3853" fill="#6E2C15" d="M93.728,80.213c0,1.691-7.215,3.058-16.119,3.058c-8.9,0-16.116-1.366-16.116-3.058
			c0-1.689,7.216-1.31,16.116-1.31C86.513,78.903,93.728,78.523,93.728,80.213z"/>
		<path opacity="0.389" fill="#6F2D15" d="M93.063,80.224c0,1.67-6.905,3.021-15.426,3.021c-8.518,0-15.423-1.351-15.423-3.021
			c0-1.669,6.905-1.294,15.423-1.294C86.157,78.93,93.063,78.555,93.063,80.224z"/>
		<path opacity="0.3927" fill="#702D16" d="M92.396,80.234c0,1.649-6.594,2.982-14.732,2.982c-8.134,0-14.729-1.333-14.729-2.982
			s6.595-1.278,14.729-1.278C85.803,78.956,92.396,78.585,92.396,80.234z"/>
		<path opacity="0.3963" fill="#712E16" d="M91.73,80.244c0,1.63-6.283,2.945-14.039,2.945c-7.75,0-14.035-1.315-14.035-2.945
			c0-1.628,6.285-1.262,14.035-1.262C85.447,78.982,91.73,78.616,91.73,80.244z"/>
		<path opacity="0.4" fill="#722E16" d="M91.064,80.255c0,1.608-5.973,2.908-13.345,2.908c-7.368,0-13.342-1.3-13.342-2.908
			c0-1.607,5.974-1.246,13.342-1.246C85.092,79.009,91.064,78.647,91.064,80.255z"/>
		<path opacity="0.4" fill="#722E16" d="M90.366,80.298c0,1.523-5.661,2.755-12.646,2.755c-6.982,0-12.644-1.231-12.644-2.755
			s5.662-1.181,12.644-1.181C84.705,79.117,90.366,78.774,90.366,80.298z"/>
		<path opacity="0.4" fill="#722E16" d="M89.667,80.34c0,1.44-5.348,2.604-11.946,2.604c-6.597,0-11.945-1.163-11.945-2.604
			c0-1.439,5.349-1.115,11.945-1.115C84.319,79.225,89.667,78.9,89.667,80.34z"/>
		<path opacity="0.4" fill="#722E16" d="M88.968,80.383c0,1.355-5.034,2.451-11.248,2.451c-6.21,0-11.245-1.096-11.245-2.451
			c0-1.354,5.035-1.051,11.245-1.051C83.934,79.332,88.968,79.028,88.968,80.383z"/>
		<path opacity="0.4" fill="#722E16" d="M88.27,80.426c0,1.271-4.723,2.299-10.549,2.299c-5.825,0-10.547-1.027-10.547-2.299
			s4.722-0.985,10.547-0.985C83.547,79.44,88.27,79.154,88.27,80.426z"/>
		<path opacity="0.4" fill="#722E16" d="M87.57,80.468c0,1.188-4.409,2.146-9.85,2.146c-5.438,0-9.848-0.959-9.848-2.146
			c0-1.187,4.41-0.919,9.848-0.919C83.161,79.549,87.57,79.281,87.57,80.468z"/>
		<path opacity="0.4" fill="#722E16" d="M86.871,80.511c0,1.103-4.096,1.994-9.15,1.994c-5.053,0-9.149-0.892-9.149-1.994
			s4.096-0.854,9.149-0.854C82.775,79.656,86.871,79.408,86.871,80.511z"/>
		<path opacity="0.4" fill="#722E16" d="M86.173,80.554c0,1.019-3.784,1.841-8.452,1.841c-4.667,0-8.45-0.822-8.45-1.841
			s3.783-0.789,8.45-0.789C82.389,79.765,86.173,79.535,86.173,80.554z"/>
		<path opacity="0.4" fill="#722E16" d="M85.474,80.596c0,0.935-3.471,1.689-7.753,1.689c-4.28,0-7.751-0.755-7.751-1.689
			c0-0.934,3.471-0.724,7.751-0.724C82.003,79.872,85.474,79.662,85.474,80.596z"/>
	</g>
</g>
</svg>
