<?xml version="1.0" encoding="utf-8"?>
<!-- Generator: Adobe Illustrator 16.0.0, SVG Export Plug-In . SVG Version: 6.00 Build 0)  -->
<!DOCTYPE svg PUBLIC "-//W3C//DTD SVG 1.1//EN" "http://www.w3.org/Graphics/SVG/1.1/DTD/svg11.dtd">
<svg version="1.1" id="Layer_1" xmlns="http://www.w3.org/2000/svg" xmlns:xlink="http://www.w3.org/1999/xlink" x="0px" y="0px"
	 width="150px" height="90px" viewBox="0 0 150 90" enable-background="new 0 0 150 90" xml:space="preserve">
<g>
	<path fill="#FFFFFF" d="M29.512,42.398c0,0.561-0.25,0.98-0.75,1.26c-0.5,0.28-1.07,0.42-1.71,0.42
		c-0.081,2.76-0.34,5.511-0.78,8.25c-0.441,2.739-1.061,5.49-1.86,8.25c-0.36,1.239-0.9,2.739-1.62,4.5
		c-0.72,1.76-1.63,3.459-2.73,5.101c-1.101,1.64-2.4,3.039-3.9,4.199s-3.21,1.74-5.13,1.74c-0.36,0-0.81-0.06-1.35-0.18
		s-0.99-0.341-1.35-0.66c-0.72-0.641-1.419-1.38-2.1-2.22c-0.68-0.841-1.29-1.71-1.83-2.61s-0.969-1.811-1.29-2.729
		c-0.32-0.921-0.48-1.781-0.48-2.58c0-0.801,0.201-1.762,0.6-2.881c0.4-1.12,0.891-2.25,1.47-3.39c0.581-1.14,1.181-2.21,1.8-3.21
		c0.621-1,1.15-1.8,1.59-2.4c1.44-1.959,2.649-3.488,3.63-4.59c0.98-1.1,1.839-2,2.58-2.7c0.74-0.699,1.43-1.29,2.07-1.77
		c0.64-0.48,1.34-1.08,2.1-1.8c0-0.12-0.261-0.41-0.78-0.87c-0.521-0.459-1.09-1.209-1.71-2.25c-0.621-1.04-1.191-2.42-1.71-4.14
		c-0.521-1.719-0.78-3.879-0.78-6.48c0-1.68,0.189-3.31,0.57-4.89c0.379-1.58,0.909-2.979,1.59-4.2c0.68-1.22,1.479-2.19,2.4-2.91
		c0.92-0.72,1.92-1.08,3-1.08l4.32-0.3c0.44,0,0.76,0.15,0.96,0.45c0.199,0.3,0.3,0.67,0.3,1.11l-0.18,2.22
		c0,1.08,0.09,2.17,0.27,3.27c0.18,1.101,0.27,1.931,0.27,2.49v15.24c1.52,0.4,2.36,1.061,2.52,1.98V42.398z M21.292,46.238
		c0-0.159-0.021-0.3-0.06-0.42c-0.041-0.12-0.18-0.18-0.42-0.18c-0.641,0-1.42,0.351-2.34,1.05c-0.92,0.7-1.88,1.63-2.88,2.79
		c-1,1.16-2,2.471-3,3.93c-1,1.46-1.89,2.939-2.67,4.439c-0.78,1.5-1.41,2.961-1.89,4.381c-0.48,1.419-0.72,2.648-0.72,3.689
		c0,1.24,0.32,2.311,0.96,3.211c0.639,0.899,1.659,1.35,3.06,1.35c1.2,0,2.28-0.561,3.24-1.68c0.96-1.121,1.81-2.521,2.55-4.201
		c0.74-1.68,1.37-3.53,1.89-5.549c0.52-2.021,0.95-3.922,1.29-5.701c0.339-1.779,0.59-3.319,0.75-4.619
		c0.159-1.3,0.24-2.09,0.24-2.37V46.238z M21.352,24.878l0.18-2.76c0.08-0.96-0.18-1.44-0.78-1.44c-0.4,0-0.82,0.141-1.26,0.42
		c-0.44,0.28-0.85,0.741-1.23,1.38c-0.38,0.641-0.69,1.5-0.93,2.58c-0.24,1.08-0.36,2.4-0.36,3.96c0,1.84,0.14,3.48,0.42,4.92
		c0.28,1.44,0.63,2.67,1.05,3.69s0.859,1.8,1.32,2.34c0.459,0.54,0.89,0.81,1.29,0.81c0.2,0,0.3-0.14,0.3-0.42V24.878z"/>
	<path fill="#FFFFFF" d="M51.532,36.08c0.16-0.279,0.44-0.419,0.84-0.419c0.2,0,0.339,0.12,0.42,0.359
		c0.08,0.24,0.12,0.439,0.12,0.599c-0.041,1.237-0.311,2.345-0.81,3.322c-0.501,0.978-1.03,1.826-1.59,2.544
		c-0.32,0.439-0.67,0.838-1.05,1.197c-0.381,0.36-0.771,0.699-1.17,1.018c-0.041,0.679-0.07,1.147-0.09,1.407
		c-0.021,0.26-0.051,0.469-0.09,0.629c-0.081,0.599-0.28,1.357-0.6,2.275c-0.32,0.918-0.771,1.815-1.35,2.693
		c-0.581,0.878-1.281,1.627-2.1,2.245c-0.82,0.618-1.77,0.929-2.85,0.929c-0.36,0-0.771-0.041-1.23-0.119
		c-0.46-0.081-0.93-0.191-1.41-0.33c-0.48-0.141-0.94-0.3-1.38-0.479c-0.44-0.182-0.82-0.371-1.14-0.57
		c-1-0.559-1.82-1.217-2.46-1.975c-0.64-0.758-1.13-1.566-1.47-2.425c-0.34-0.858-0.57-1.736-0.69-2.634
		c-0.12-0.899-0.18-1.767-0.18-2.605c0-1.437,0.15-2.893,0.45-4.371c0.3-1.477,0.669-2.893,1.11-4.25
		c0.439-1.357,0.939-2.574,1.5-3.652c0.56-1.078,1.1-1.916,1.62-2.514c0.519-0.559,1.1-0.949,1.74-1.168
		c0.64-0.219,1.22-0.329,1.74-0.329c0.639,0,1.279,0.161,1.92,0.479c0.639,0.319,1.26,0.719,1.86,1.197
		c0.6,0.479,1.19,1.028,1.77,1.646c0.58,0.619,1.13,1.228,1.65,1.826c0.399,0.439,0.7,1.147,0.9,2.125
		c0.2,0.979,0.36,1.966,0.48,2.963c0.08,0.559,0.14,1.158,0.18,1.796c0.04,0.639,0.06,1.297,0.06,1.975
		c0.6-0.478,1.08-0.987,1.44-1.526c0.36-0.538,0.65-1.047,0.87-1.526c0.219-0.479,0.399-0.928,0.54-1.348
		C51.222,36.648,51.372,36.319,51.532,36.08z M44.452,46.118c-0.48,0.321-1.14,0.561-1.98,0.72c-0.84,0.16-1.54,0.24-2.1,0.24
		c-1.08,0-1.911-0.08-2.49-0.24c-0.58-0.159-1.21-0.479-1.89-0.959l-0.06,1.26c0,0.44,0.06,0.899,0.18,1.379
		c0.12,0.48,0.31,0.922,0.57,1.32c0.259,0.4,0.63,0.73,1.11,0.99c0.48,0.261,1.08,0.391,1.8,0.391c0.879,0,1.629-0.17,2.25-0.511
		c0.62-0.339,1.12-0.77,1.5-1.29c0.38-0.52,0.66-1.08,0.84-1.68C44.362,47.139,44.452,46.598,44.452,46.118z M44.722,40.118
		c-0.021-0.56-0.06-1.22-0.12-1.98c-0.06-0.759-0.161-1.55-0.3-2.37c-0.141-0.819-0.34-1.569-0.6-2.25
		c-0.261-0.68-0.591-1.25-0.99-1.71c-0.4-0.459-0.9-0.69-1.5-0.69s-1.18,0.24-1.74,0.72c-0.561,0.48-1.06,1.101-1.5,1.86
		c-0.44,0.76-0.79,1.62-1.05,2.58c-0.261,0.96-0.39,1.9-0.39,2.82c0,1.601,0.32,2.771,0.96,3.51c0.64,0.74,1.74,1.11,3.3,1.11
		c1.16,0,2.109-0.18,2.85-0.54c0.74-0.36,1.11-0.639,1.11-0.84v-1.14C44.752,41.039,44.742,40.679,44.722,40.118z"/>
	<path fill="#FFFFFF" d="M65.691,50.438c-0.8-0.8-1.46-2.02-1.98-3.66c-0.12,0.239-0.27,0.761-0.45,1.56
		c-0.18,0.801-0.45,1.631-0.81,2.49c-0.36,0.861-0.831,1.641-1.41,2.34c-0.58,0.699-1.311,1.051-2.19,1.051
		c-2.561,0-4.32-0.741-5.28-2.221c-0.96-1.479-1.521-3.66-1.68-6.54v-14.46c0.08-0.279,0.129-0.48,0.15-0.6
		c0.02-0.12,0.189-0.18,0.51-0.18c0.2,0,0.549,0.041,1.05,0.12c0.5,0.081,1.01,0.19,1.53,0.33c0.52,0.141,0.99,0.33,1.41,0.57
		c0.42,0.24,0.63,0.521,0.63,0.84v10.62c0,0.72,0.01,1.521,0.03,2.4c0.02,0.88,0.08,1.691,0.18,2.43c0.1,0.741,0.27,1.36,0.51,1.86
		c0.24,0.5,0.579,0.75,1.02,0.75c1.16,0,2.06-1.17,2.7-3.51c0.64-2.341,1-6.031,1.08-11.071c0-0.319-0.081-0.639-0.24-0.96
		c-0.161-0.32-0.24-0.699-0.24-1.14c0.08-0.319,0.41-0.519,0.99-0.6c0.579-0.08,1.11-0.12,1.59-0.12c1.2,0,2.08,0.12,2.64,0.36
		c0.56,0.24,0.84,0.96,0.84,2.16c-0.081,0.72-0.15,1.29-0.21,1.71s-0.1,0.801-0.12,1.14c-0.021,0.34-0.04,0.7-0.06,1.08
		c-0.021,0.38-0.03,0.93-0.03,1.65c0,0.92,0.04,1.88,0.12,2.88c0.08,1,0.219,1.92,0.42,2.76c0.2,0.84,0.45,1.529,0.75,2.07
		c0.3,0.539,0.69,0.81,1.17,0.81c0.44,0,0.78-0.13,1.021-0.39c0.24-0.26,0.459-0.55,0.66-0.871c0.199-0.319,0.398-0.609,0.6-0.869
		c0.199-0.26,0.48-0.391,0.84-0.391c0.32,0,0.561,0.111,0.721,0.33c0.158,0.221,0.238,0.431,0.238,0.631
		c0,0.76-0.189,1.4-0.568,1.92c-0.381,0.52-0.84,0.939-1.381,1.26c-0.539,0.32-1.09,0.55-1.65,0.689
		c-0.561,0.141-1.02,0.211-1.38,0.211c-0.681,0-1.26-0.08-1.74-0.24s-0.96-0.4-1.44-0.721L65.691,50.438z"/>
	<path fill="#FFFFFF" d="M91.371,44.738c0,0.28-0.09,0.951-0.271,2.01c-0.18,1.061-0.5,2.181-0.96,3.36
		c-0.46,1.181-1.08,2.229-1.859,3.149c-0.78,0.92-1.771,1.381-2.971,1.381c-1.28,0-2.3-0.45-3.06-1.351
		c-0.761-0.899-1.341-1.979-1.74-3.239c-0.4-1.261-0.66-2.58-0.78-3.961c-0.119-1.38-0.18-2.529-0.18-3.45
		c0-1.04,0.061-2.09,0.18-3.15c0.12-1.06,0.2-2.109,0.24-3.15c0-0.32-0.16-0.52-0.479-0.6c-0.321-0.08-0.621-0.12-0.9-0.12
		c-0.479,0-0.78,0.06-0.9,0.18c-0.119,0.12-0.2,0.261-0.239,0.42l-0.24,1.92c-0.16,1.281-0.33,2.511-0.51,3.69
		c-0.181,1.181-0.381,2.22-0.601,3.12s-0.479,1.62-0.779,2.16c-0.301,0.54-0.651,0.81-1.051,0.81h-0.06
		c-0.16,0-0.311-0.039-0.45-0.119s-0.21-0.279-0.21-0.601c0-0.159,0.04-0.399,0.12-0.72c0.319-1.4,0.52-2.56,0.6-3.48
		c0.08-0.919,0.14-1.74,0.181-2.46v-0.42c0-0.2,0.009-0.439,0.029-0.72c0.021-0.28,0.03-0.62,0.03-1.02v-1.56c0-0.44,0-0.9,0-1.38
		c0-0.48-0.04-1-0.12-1.56l-0.18-3.54c0-0.24,0.1-0.459,0.3-0.66c0.2-0.2,0.46-0.38,0.78-0.54c0.319-0.159,0.66-0.279,1.02-0.36
		c0.36-0.08,0.68-0.12,0.96-0.12c0.68,0,1.021,0.44,1.021,1.32v0.3l-0.061,1.32v0.36c0,0.281,0.061,0.45,0.181,0.51
		s0.359,0.13,0.72,0.21h0.18c0.32,0.041,0.841,0.081,1.561,0.12c0.72,0.04,1.439,0.12,2.16,0.24c0.72,0.12,1.35,0.311,1.89,0.57
		c0.54,0.26,0.81,0.63,0.81,1.11c0,0.16-0.04,0.39-0.119,0.69c-0.081,0.3-0.181,0.6-0.301,0.9c-0.12,0.3-0.22,0.57-0.3,0.81
		c-0.08,0.24-0.12,0.4-0.12,0.48c-0.72,2.76-1.08,5.64-1.08,8.64c0,0.24,0.021,0.681,0.061,1.32c0.039,0.641,0.12,1.3,0.24,1.979
		c0.119,0.681,0.3,1.28,0.54,1.8c0.239,0.521,0.539,0.78,0.899,0.78c0.601,0,1.14-0.369,1.62-1.11c0.48-0.739,0.9-1.6,1.26-2.58
		c0.36-0.979,0.65-1.969,0.87-2.97c0.22-0.999,0.369-1.74,0.45-2.22c0.08-0.44,0.21-0.71,0.39-0.81
		c0.181-0.099,0.35-0.15,0.511-0.15c0.56,0,0.84,0.36,0.84,1.08c0,0.081-0.011,0.291-0.03,0.63
		C91.44,44.329,91.41,44.579,91.371,44.738z"/>
	<path fill="#FFFFFF" d="M98.99,40.118c-0.6,0.84-1.09,1.77-1.47,2.79c-0.381,1.02-0.711,2.081-0.99,3.18
		c-0.28,1.102-0.51,2.201-0.689,3.301c-0.181,1.1-0.37,2.15-0.57,3.149c-0.08,0.24-0.39,0.4-0.93,0.479
		c-0.54,0.081-0.931,0.121-1.17,0.121c-0.721,0-1.311-0.04-1.771-0.121c-0.46-0.079-0.81-0.27-1.05-0.569s-0.42-0.759-0.54-1.38
		c-0.12-0.619-0.221-1.449-0.3-2.49l0.78-17.82c0-0.52,0.279-0.78,0.84-0.78c0.199,0,0.479,0.03,0.84,0.09s0.739,0.15,1.14,0.27
		c0.399,0.12,0.74,0.27,1.021,0.45c0.279,0.18,0.42,0.39,0.42,0.63v12.18c0.039-0.039,0.1-0.2,0.18-0.48
		c0.279-0.72,0.62-1.609,1.021-2.67c0.399-1.06,0.84-2.07,1.319-3.03c0.48-0.96,0.99-1.78,1.53-2.46c0.54-0.68,1.09-1.02,1.65-1.02
		c0.72,0,1.269,0.17,1.649,0.51c0.38,0.34,0.67,0.771,0.87,1.29c0.2,0.521,0.319,1.08,0.36,1.68c0.039,0.6,0.06,1.18,0.06,1.74
		c0,0.4-0.04,1.061-0.12,1.98c-0.08,0.921-0.12,2.301-0.12,4.14c0,1.04,0.1,1.979,0.301,2.819c0.199,0.841,0.6,1.261,1.199,1.261
		c0.44,0,0.841-0.2,1.2-0.601c0.36-0.398,0.69-0.899,0.99-1.5c0.3-0.6,0.55-1.238,0.75-1.919c0.199-0.68,0.319-1.32,0.36-1.92
		c0.039-0.76,0.339-1.14,0.899-1.14c0.36,0,0.601,0.12,0.72,0.36c0.12,0.24,0.181,0.521,0.181,0.84v0.12
		c-0.04,0.801-0.19,1.701-0.45,2.701c-0.261,1-0.641,1.939-1.14,2.819c-0.501,0.88-1.15,1.62-1.95,2.22
		c-0.801,0.601-1.78,0.9-2.94,0.9c-1.8,0-2.95-0.65-3.45-1.95s-0.75-3.229-0.75-5.79L98.99,40.118z"/>
	<path fill="#FFFFFF" d="M125.75,43.958c0,1-0.18,2.121-0.54,3.36c-0.359,1.24-0.92,2.391-1.68,3.449
		c-0.76,1.061-1.73,1.951-2.91,2.671s-2.59,1.079-4.229,1.079c-1.561,0-2.88-0.279-3.96-0.84c-1.08-0.559-1.971-1.319-2.67-2.279
		c-0.7-0.96-1.2-2.09-1.5-3.391c-0.301-1.299-0.45-2.669-0.45-4.109c0-1.4,0.159-2.94,0.479-4.62c0.32-1.68,0.819-3.25,1.5-4.71
		c0.68-1.46,1.54-2.68,2.58-3.66c1.04-0.979,2.3-1.47,3.78-1.47c0.72,0,1.399,0.15,2.04,0.45c0.64,0.3,1.2,0.69,1.68,1.17
		c0.48,0.48,0.86,1.041,1.141,1.68c0.279,0.64,0.439,1.3,0.479,1.98l0.061,0.84c0,0.96-0.161,2.01-0.48,3.15
		c-0.32,1.14-0.78,2.201-1.38,3.18c-0.6,0.98-1.341,1.8-2.22,2.46c-0.881,0.66-1.881,0.99-3,0.99c-0.201,0-0.45-0.02-0.75-0.06
		c-0.301-0.04-0.591-0.1-0.87-0.18v1.74c0,0.281,0.09,0.682,0.27,1.2c0.181,0.521,0.45,1.03,0.811,1.53
		c0.359,0.5,0.829,0.94,1.41,1.32c0.579,0.381,1.29,0.569,2.13,0.569c1.159,0,2.109-0.229,2.85-0.69
		c0.74-0.459,1.35-1.049,1.83-1.77c0.48-0.72,0.85-1.529,1.11-2.43c0.26-0.9,0.47-1.77,0.63-2.61c0.12-0.56,0.24-0.939,0.359-1.14
		c0.12-0.2,0.32-0.3,0.601-0.3c0.6,0,0.899,0.34,0.899,1.02V43.958z M118.67,34.658c0-0.32-0.09-0.66-0.27-1.02
		s-0.51-0.54-0.99-0.54c-0.72,0-1.341,0.381-1.859,1.14c-0.521,0.76-0.951,1.63-1.29,2.61c-0.341,0.981-0.591,1.92-0.75,2.82
		c-0.161,0.9-0.24,1.49-0.24,1.77v0.18c0,0.36,0.03,0.651,0.09,0.87c0.06,0.22,0.271,0.33,0.63,0.33h0.3c0.8,0,1.479-0.3,2.04-0.9
		c0.56-0.6,1.01-1.32,1.351-2.16c0.339-0.84,0.59-1.7,0.75-2.58c0.159-0.879,0.239-1.599,0.239-2.16V34.658z"/>
	<path fill="#FFFFFF" d="M142.489,52.838c0,0.32-0.08,0.541-0.239,0.66c-0.161,0.12-0.341,0.199-0.54,0.24
		c-0.201,0.039-0.411,0.069-0.63,0.09c-0.221,0.02-0.371,0.09-0.45,0.21v9.54c0,0.76-0.011,1.59-0.03,2.49
		c-0.021,0.9-0.11,1.789-0.271,2.67c-0.162,0.879-0.413,1.699-0.754,2.46c-0.342,0.76-0.834,1.38-1.476,1.86
		c-0.042,0.039-0.172,0.129-0.394,0.27c-0.221,0.14-0.462,0.3-0.723,0.48c-0.261,0.18-0.512,0.35-0.753,0.51
		c-0.24,0.159-0.4,0.26-0.481,0.3c-0.563,0.36-1.015,0.78-1.355,1.26c-0.342,0.48-0.773,0.721-1.296,0.721
		c-0.2,0-0.352-0.011-0.452-0.03c-0.1-0.021-0.2-0.051-0.301-0.09c-0.101-0.041-0.241-0.09-0.422-0.15
		c-0.181-0.06-0.432-0.13-0.753-0.21c-1.809-0.36-3.063-0.891-3.767-1.59c-0.703-0.7-1.054-1.83-1.054-3.39
		c0-1.601,0.24-3.262,0.72-4.98c0.48-1.721,1.141-3.381,1.98-4.98s1.839-3.09,3-4.47c1.159-1.38,2.42-2.55,3.78-3.51v-7.68
		c-0.201,0.76-0.441,1.64-0.721,2.64c-0.28,1-0.63,1.94-1.05,2.82s-0.91,1.619-1.47,2.22c-0.561,0.601-1.221,0.899-1.98,0.899
		c-0.681,0-1.42-0.239-2.22-0.719c-0.801-0.48-1.521-0.961-2.16-1.44c-0.479-0.399-0.86-1.03-1.14-1.89
		c-0.28-0.86-0.49-1.771-0.63-2.73c-0.141-0.96-0.231-1.88-0.271-2.76c-0.04-0.879-0.06-1.52-0.06-1.92
		c0-1.56,0.02-3.189,0.061-4.89c0.04-1.7,0.142-3.27,0.304-4.71c0.161-1.44,0.404-2.629,0.729-3.57
		c0.324-0.939,0.75-1.41,1.277-1.41c0.161,0,0.485,0.041,0.971,0.12c0.485,0.081,0.991,0.21,1.515,0.39
		c0.522,0.18,0.984,0.42,1.384,0.72c0.399,0.3,0.601,0.67,0.601,1.11c0,0.12-0.051,0.21-0.15,0.27c-0.1,0.06-0.19,0.13-0.27,0.21
		c-0.24,0.16-0.461,0.47-0.66,0.93c-0.2,0.46-0.37,1.121-0.51,1.98c-0.141,0.861-0.251,1.98-0.33,3.36
		c-0.081,1.38-0.12,3.07-0.12,5.07c0,3,0.109,5.14,0.33,6.42c0.219,1.28,0.669,1.92,1.35,1.92c0.721,0,1.37-0.541,1.95-1.62
		c0.579-1.08,1.11-2.499,1.59-4.26c0.48-1.76,0.92-3.759,1.32-6c0.399-2.24,0.759-4.5,1.08-6.78c0.399,0,0.85,0.021,1.35,0.06
		c0.5,0.041,0.979,0.12,1.44,0.24c0.459,0.12,0.85,0.27,1.17,0.45c0.319,0.18,0.479,0.43,0.479,0.75c0,0.2-0.12,0.34-0.359,0.42
		v17.76c0.439,0.041,0.859,0.131,1.26,0.27C142.289,51.988,142.489,52.318,142.489,52.838z M135.83,55.778
		c-0.961,0.759-1.821,1.739-2.58,2.94c-0.761,1.199-1.41,2.469-1.95,3.81c-0.54,1.34-0.951,2.67-1.23,3.989
		c-0.28,1.32-0.42,2.461-0.42,3.421c0,0.199,0.01,0.529,0.03,0.99c0.02,0.459,0.109,0.909,0.27,1.35
		c0.16,0.439,0.391,0.83,0.69,1.17s0.75,0.51,1.35,0.51c0.88,0,1.569-0.471,2.07-1.41c0.5-0.939,0.88-2.04,1.14-3.3
		s0.43-2.52,0.511-3.779c0.079-1.261,0.12-2.19,0.12-2.791v-0.239V55.778z"/>
</g>
</svg>
